<svg width="40" height="40" viewBox="0 0 40 40" fill="none" xmlns="http://www.w3.org/2000/svg">
<path fill-rule="evenodd" clip-rule="evenodd" d="M36.8188 0.0142445C35.9361 0.0142445 35.1127 0.328133 34.5319 0.908948C33.951 1.49012 33.6371 2.01452 33.6371 3.18162V31.8027C33.6444 32.2107 33.6368 32.4197 33.7507 32.6974C34.6787 35.4133 35.2342 37.1315 35.938 39.3309C36.0382 39.694 36.386 39.9768 36.7617 39.9987C37.1375 40.0205 37.5154 39.7796 37.6564 39.4305C38.4846 36.959 39.1466 35.0196 39.9434 32.5839C40.0037 32.4029 40.0002 32.2935 40.0002 32.1153V0.922843C40.0002 0.447254 39.5664 0.013855 39.0912 0.013855H36.8185L36.8188 0.0142445ZM36.4923 1.83222C36.5925 1.82461 36.7038 1.83222 36.8188 1.83222H38.1825V31.3486H35.4551V3.18203C35.4551 2.17247 35.7903 1.88839 36.4919 1.83263L36.4923 1.83222Z" fill="#47D618"/>
<path fill-rule="evenodd" clip-rule="evenodd" d="M17.3023 0C12.6114 0.00443885 7.92428 0.0139509 3.22552 0.0139509H3.14023C2.69381 0.0561195 2.31428 0.474321 2.31655 0.922939V3.18133H0.952864H0.867574C0.391984 3.20352 -0.0211232 3.65723 0.00103539 4.13317C0.0232297 4.60908 0.477258 5.02187 0.95288 4.99971H2.31657V7.72708H0.95288H0.86759C0.392001 7.74927 -0.0211071 8.20298 0.0010515 8.67892C0.0232458 9.15483 0.477275 9.56762 0.952897 9.54546H2.31658V12.2728H0.952897H0.867606C0.392017 12.295 -0.0210904 12.7487 0.00106822 13.2247C0.0232625 13.7006 0.477291 14.1134 0.952913 14.0912H2.3166V16.8186H0.952913H0.867622C0.392033 16.8408 -0.0210743 17.2945 0.00108432 17.7704C0.0232786 18.2463 0.477307 18.6591 0.952929 18.637H2.31661V20.9096H0.952929H0.867639C0.392049 20.9318 -0.0210582 21.3855 0.00110042 21.8615C0.0232947 22.3374 0.477323 22.7502 0.952945 22.728H2.31663V25.4554H0.952945H0.867655C0.392066 25.4776 -0.0210421 25.9313 0.00111652 26.4072C0.0233108 26.8831 0.47734 27.2959 0.952962 27.2738H2.31665V29.9869H0.952962H0.867671C0.392082 30.009 -0.021026 30.4628 0.00113262 30.9387C0.0233269 31.4146 0.477356 31.8274 0.952978 31.8052H2.31666V34.5326H0.952978H0.867688C0.392098 34.5548 -0.0210092 35.0085 0.00114934 35.4844C0.0233436 35.9604 0.477372 36.3731 0.952994 36.351H2.31668V39.0784C2.31668 39.5539 2.75042 39.9873 3.22567 39.9873H31.3784C31.854 39.9873 32.2874 39.5539 32.2874 39.0784V0.925861C32.2874 0.449955 31.8537 0.0168731 31.3784 0.0168731C26.6897 0.0064099 21.9931 6.8935e-05 17.3016 0.00292195L17.3023 0ZM4.13459 1.83226H24.5603V38.1666H4.13459V36.3486H6.40727C6.88349 36.3486 7.31626 35.9159 7.31626 35.4397C7.31626 34.9631 6.88316 34.5297 6.40727 34.5307H4.13459V31.8033H6.40727C6.88349 31.8033 7.31626 31.3705 7.31626 30.8943C7.31626 30.4178 6.88316 29.9843 6.40727 29.9853H4.13459V27.2722H6.40727C6.88349 27.2722 7.31626 26.8395 7.31626 26.3632C7.31626 25.8867 6.88316 25.453 6.40727 25.4543H4.13459V22.7269H6.40727C6.88349 22.7269 7.31626 22.2941 7.31626 21.8179C7.31626 21.3414 6.88316 20.9076 6.40727 20.9089H4.13459V18.6362H6.40727C6.88349 18.6362 7.31626 18.2035 7.31626 17.7273C7.31626 17.2507 6.88316 16.817 6.40727 16.8183H4.13459V14.0909H6.40727C6.88349 14.0909 7.31626 13.6581 7.31626 13.1819C7.31626 12.7054 6.88316 12.2716 6.40727 12.2729H4.13459V9.54555H6.40727C6.88349 9.54555 7.31626 9.11277 7.31626 8.63656C7.31626 8.16002 6.88316 7.72628 6.40727 7.72757H4.13459V5.00021H6.40727C6.88349 5.00021 7.31626 4.56742 7.31626 4.09122C7.31626 3.61468 6.88316 3.18093 6.40727 3.18223H4.13459V1.83226Z" fill="#47D618"/>
</svg>
