<svg width="40" height="33" viewBox="0 0 40 33" fill="none" xmlns="http://www.w3.org/2000/svg">
<path d="M39.2651 0H10.8975C10.5084 0 10.1625 0.345869 10.1625 0.735048V16.7785C10.1625 17.1676 10.5083 17.5135 10.8975 17.5135C11.2867 17.5135 11.6326 17.1676 11.6326 16.7785V1.47083H38.5293V18.1627L19.2002 18.163C18.811 18.163 18.4651 18.5089 18.4651 18.8981C18.4651 19.2873 18.811 19.6331 19.2002 19.6331H39.2651C39.6542 19.6331 40.0001 19.2873 40.0001 18.8981V0.736069C40.0001 0.346926 39.6975 0.00080006 39.2651 0.00080006V0Z" fill="#47D618"/>
<path d="M8.12963 12.584C8.12963 14.7573 6.36786 16.519 4.19433 16.519C2.0211 16.519 0.25933 14.7573 0.25933 12.584C0.25933 10.4108 2.0211 8.64874 4.19433 8.64874C6.36786 8.64874 8.12963 10.4108 8.12963 12.584Z" fill="#47D618"/>
<path d="M37.016 24.6052C37.016 26.5398 35.448 28.1081 33.5134 28.1081C31.5789 28.1081 30.0109 26.5398 30.0109 24.6052C30.0109 22.671 31.5789 21.1027 33.5134 21.1027C35.448 21.1027 37.016 22.671 37.016 24.6052Z" fill="#47D618"/>
<path d="M23.9567 24.6052C23.9567 26.5398 22.3887 28.1081 20.4542 28.1081C18.5196 28.1081 16.9513 26.5398 16.9513 24.6052C16.9513 22.671 18.5196 21.1027 20.4542 21.1027C22.3887 21.1027 23.9567 22.671 23.9567 24.6052Z" fill="#47D618"/>
<path d="M17.8592 16.3891L22.9186 9.85933C23.0917 9.64299 23.0484 9.34038 22.8321 9.16759C22.6157 8.99451 22.3131 9.03778 22.1403 9.25413L17.1242 15.8272C16.6485 15.6541 16.0863 15.7406 15.6971 16.0865L12.3243 18.9839L5.44871 17.6001C5.36217 17.6001 5.23236 17.5568 5.14611 17.5568C4.84351 17.5136 4.54062 17.4703 4.19473 17.4703H4.10819C1.85961 17.4703 0.000131607 19.0272 0.000131607 20.9729V32.0866H8.25952L8.25924 21.1893L12.3673 22.0108C12.4538 22.0108 12.5404 22.0541 12.6699 22.0541C13.0158 22.0541 13.3616 21.9243 13.6213 21.7082L17.513 18.3352C18.162 17.8162 18.2918 16.9947 17.8592 16.3892L17.8592 16.3891Z" fill="#47D618"/>
<path d="M33.5564 28.8431H33.4698C31.0048 28.8431 29.0592 30.2268 29.0592 31.9565V32.1296H38.0103V31.9565C38.0103 30.2268 36.0214 28.8431 33.5564 28.8431H33.5564Z" fill="#47D618"/>
<path d="M20.4971 28.8431H20.4106C17.9456 28.8431 15.9999 30.2268 15.9999 31.9565V32.1296H24.9511V31.9565C24.9078 30.2268 22.9186 28.8431 20.4971 28.8431H20.4971Z" fill="#47D618"/>
<path d="M34.984 3.84869H17.2548C16.8656 3.84869 16.5197 4.19456 16.5197 4.58374C16.5197 4.97289 16.8656 5.31879 17.2548 5.31879H34.984C35.3731 5.31879 35.719 4.97292 35.719 4.58374C35.719 4.1946 35.4164 3.84869 34.984 3.84869Z" fill="#47D618"/>
<path d="M34.9839 9.08118H25.9895C25.6003 9.08118 25.2544 9.42705 25.2544 9.81623C25.2544 10.2054 25.6003 10.5513 25.9895 10.5513H35.0272C35.4163 10.5513 35.7622 10.2054 35.7622 9.81623C35.719 9.38382 35.4164 9.08118 34.984 9.08118H34.9839Z" fill="#47D618"/>
<path d="M34.9839 14.616H23.8701C23.481 14.616 23.1351 14.9619 23.1351 15.3511C23.1351 15.7402 23.4809 16.0861 23.8701 16.0861H35.0272C35.4163 16.0861 35.7622 15.7403 35.7622 15.3511C35.7189 14.919 35.4163 14.616 34.9839 14.616H34.9839Z" fill="#47D618"/>
</svg>
