<svg width="40" height="40" viewBox="0 0 40 40" fill="none" xmlns="http://www.w3.org/2000/svg">
<path d="M36.8197 23.0125C35.2717 23.0125 33.9747 21.7155 33.9747 20.1254C33.9747 18.5774 35.2717 17.2384 36.8197 17.2384C38.4097 17.2384 39.6647 18.5353 39.6647 20.1254C39.7068 21.7572 38.4097 23.0125 36.8197 23.0125ZM22.6357 2.88709C22.6357 1.29707 21.3804 0 19.7906 0C18.2426 0 16.9456 1.33906 16.9456 2.88709C16.9456 4.47712 18.2426 5.77419 19.7906 5.77419C21.3804 5.77419 22.6774 4.51889 22.6357 2.88709ZM22.6357 37.1129C22.6357 35.5229 21.3804 34.2258 19.7906 34.2258C18.2426 34.2258 16.9456 35.5649 16.9456 37.1129C16.9456 38.7029 18.2426 40 19.7906 40C21.3804 40 22.6774 38.7447 22.6357 37.1129ZM5.69012 20.1255C5.69012 18.5355 4.43482 17.2384 2.84509 17.2384C1.29705 17.2384 6.10352e-05 18.5775 6.10352e-05 20.1255C6.10352e-05 21.7155 1.29705 23.0126 2.84509 23.0126C4.43512 23.0126 5.73218 21.7573 5.69012 20.1255ZM20.1252 13.0543V7.40598C20.1252 7.23874 19.9997 7.07121 19.7904 7.07121C19.6232 7.07121 19.4557 7.19671 19.4557 7.40598V13.0546C19.4557 13.2219 19.5812 13.3894 19.7904 13.3894C19.9577 13.3891 20.1252 13.2219 20.1252 13.0543V13.0543ZM7.23823 20.4185H12.8869C13.0541 20.4185 13.2217 20.293 13.2217 20.0837C13.2217 19.9165 13.0962 19.749 12.8869 19.749H7.23823C7.07099 19.749 6.90347 19.8745 6.90347 20.0837C6.90347 20.293 7.0707 20.4185 7.23823 20.4185ZM26.8197 20.3347H32.4684C32.6357 20.3347 32.8032 20.2092 32.8032 20C32.8032 19.8327 32.6777 19.6652 32.4684 19.6652H26.8197C26.6525 19.6652 26.485 19.7907 26.485 20C26.4432 20.2092 26.6525 20.3347 26.8197 20.3347ZM20.1254 32.6778V27.0291C20.1254 26.8619 19.9999 26.6943 19.7906 26.6943C19.6234 26.6943 19.4558 26.8198 19.4558 27.0291V32.6778C19.4558 32.845 19.5813 33.0125 19.7906 33.0125C19.9578 32.9708 20.1254 32.8453 20.1254 32.6778ZM10.7949 7.82431C10.7949 6.23428 9.53955 4.93721 7.94982 4.93721C6.40179 4.93721 5.10479 6.27627 5.10479 7.82431C5.10479 9.41433 6.40179 10.7114 7.94982 10.7114C9.53955 10.7114 10.8369 9.4561 10.7949 7.82431ZM15.3137 14.7282L11.3389 10.7534C11.2134 10.6279 11.0041 10.6279 10.8786 10.7534C10.7531 10.8789 10.7531 11.0882 10.8786 11.2137L14.8534 15.1885C14.9789 15.314 15.1882 15.314 15.3137 15.1885C15.3974 15.063 15.3974 14.8537 15.3137 14.7282ZM31.6734 10.7113C33.2215 10.7113 34.5185 9.41433 34.5185 7.82423C34.5185 6.27619 33.2215 4.93714 31.6734 4.93714C30.0834 4.93714 28.8284 6.23413 28.8284 7.82423C28.7864 9.45602 30.0834 10.7113 31.6734 10.7113ZM24.3095 15.1884C24.435 15.3139 24.6443 15.3139 24.7698 15.1884L28.7446 11.2136C28.8701 11.0881 28.8701 10.8789 28.7446 10.7534C28.6191 10.6279 28.4098 10.6279 28.2843 10.7534L24.3095 14.7282C24.1837 14.8537 24.1837 15.0629 24.3095 15.1884ZM7.94975 28.9122C6.40171 28.9122 5.10472 30.2092 5.10472 31.7993C5.10472 33.3474 6.40171 34.6864 7.94975 34.6864C9.53977 34.6864 10.7948 33.3894 10.7948 31.7993C10.8368 30.1672 9.53948 28.9122 7.94975 28.9122ZM15.1044 24.6026C14.9789 24.4771 14.7696 24.4771 14.6441 24.6026L10.6693 28.5774C10.5438 28.7029 10.5438 28.9122 10.6693 29.0377C10.7948 29.1632 11.0041 29.1632 11.1296 29.0377L15.1044 25.0629C15.2299 24.9371 15.2299 24.7281 15.1044 24.6026ZM28.8282 31.7993C28.8282 33.3893 30.0835 34.6864 31.6732 34.6864C33.2212 34.6864 34.5182 33.3473 34.5182 31.7993C34.5182 30.2092 33.2212 28.9122 31.6732 28.9122C30.0835 28.9122 28.7864 30.1672 28.8282 31.7993ZM24.4769 25.0629L28.4517 29.0377C28.5772 29.1632 28.7865 29.1632 28.912 29.0377C29.0375 28.9122 29.0375 28.7029 28.912 28.5774L24.9372 24.6026C24.8117 24.4771 24.6024 24.4771 24.4769 24.6026C24.3514 24.7281 24.3514 24.9371 24.4769 25.0629ZM19.8326 19.9162C18.4935 19.9162 17.364 18.7865 17.364 17.4477C17.364 16.1089 18.4935 14.9792 19.8326 14.9792C21.2133 14.9792 22.3011 16.1089 22.3011 17.4477C22.3011 18.8284 21.2133 19.9162 19.8326 19.9162ZM19.8326 15.6904C18.9121 15.6904 18.117 16.5271 18.117 17.4477C18.117 18.41 18.87 19.205 19.8326 19.205C20.7948 19.205 21.5481 18.452 21.5481 17.4477C21.5481 16.4434 20.8368 15.6487 19.8326 15.6904ZM23.6819 23.3891H15.9832C15.8994 21.5063 16.3597 20.0838 17.113 19.749C18.1172 19.3305 19.2468 20.3348 19.3305 20.502C19.6236 20.753 19.7491 20.753 19.7908 20.753C19.8746 20.753 20.0418 20.6692 20.2511 20.502C20.3766 20.3765 21.5064 19.3305 22.5103 19.749C23.3054 20.0838 23.8073 21.5063 23.6819 23.3891H23.6819ZM16.7363 22.7196H22.9706C22.8869 21.004 22.5103 20.5438 22.2176 20.4603C21.7574 20.2511 21.0044 20.7951 20.753 21.0461C20.46 21.3391 20.1673 21.5063 19.8326 21.5063C19.5395 21.5063 19.2468 21.3391 18.9121 21.0461C18.6611 20.8368 17.9078 20.251 17.4475 20.4603C17.1547 20.5441 16.7362 20.9623 16.7362 22.7196H16.7363Z" fill="#47D618"/>
</svg>
