<svg width="40" height="35" viewBox="0 0 40 35" fill="none" xmlns="http://www.w3.org/2000/svg">
<path d="M32.4628 16.8274C32.4628 9.47835 26.8733 3.49768 20.0003 3.49768C13.1299 3.49768 7.53782 9.47843 7.53782 16.8274C7.53782 24.1792 13.1285 30.1571 20.0003 30.1571C26.8721 30.1571 32.4628 24.1791 32.4628 16.8274ZM9.64025 16.8274C9.64025 16.1634 9.70476 15.5168 9.80708 14.8848C10.5653 14.3201 12.3086 13.0095 13.4084 12.0364C14.5027 12.4799 16.8147 13.2261 20.0007 13.2261C23.1867 13.2261 25.5002 12.4801 26.593 12.0364C27.6926 13.011 29.436 14.3204 30.1954 14.8848C30.2975 15.518 30.3623 16.1631 30.3623 16.8274C30.3623 23.0176 25.7153 28.0578 20.0007 28.0578C14.2885 28.0566 9.63985 23.0183 9.63985 16.8274H9.64025Z" fill="#47D618"/>
<path d="M39.4991 13.8055C38.9761 12.5245 38.1764 11.6871 37.1196 11.3186C36.1411 10.9771 35.204 11.1425 34.5748 11.3456C32.5413 4.68188 26.8641 0 20.0007 0C13.1383 0 7.46134 4.68065 5.42497 11.3441C4.79725 11.1424 3.86017 10.9771 2.88016 11.3171C1.82487 11.684 1.02369 12.5215 0.500656 13.804C-0.465833 16.1753 0.00735653 19.6488 1.57484 21.7121C2.5212 22.9543 3.80371 23.6183 5.23409 23.6183C5.41682 23.6183 5.60106 23.6075 5.7892 23.5874C6.3176 23.5241 6.71667 23.0752 6.71667 22.5429V16.8271C6.71817 8.56943 12.5537 2.10313 20.0011 2.10313C27.4509 2.10313 33.2847 8.57028 33.2847 16.8271V22.5429C33.2847 22.719 33.34 22.8789 33.418 23.0254C32.6385 24.9812 29.8932 30.4767 23.293 31.9029C23.0013 31.5695 22.5764 31.3544 22.0978 31.3544H17.9035C17.0244 31.3544 16.3093 32.0682 16.3093 32.9513C16.3093 33.8305 17.0231 34.5455 17.9035 34.5455H22.0963C22.8704 34.5455 23.517 33.9916 23.6596 33.2565C30.666 31.6944 33.7431 25.8414 34.6772 23.6154C34.7054 23.6154 34.7363 23.6208 34.766 23.6208C36.1949 23.6208 37.4788 22.9568 38.4237 21.7146C39.9939 19.6502 40.4659 16.1767 39.4991 13.8057L39.4991 13.8055Z" fill="#47D618"/>
</svg>
