<svg width="30" height="30" viewBox="0 0 30 30" fill="none" xmlns="http://www.w3.org/2000/svg">
<path d="M4.45265 15.4691H9.60895C10.6402 15.4691 11.484 14.6253 11.484 13.594V9.84401C11.484 8.81275 10.6402 7.96899 9.60895 7.96899H4.45265C3.42139 7.96899 2.57764 8.81275 2.57764 9.84401V13.594C2.57764 14.6253 3.42139 15.4691 4.45265 15.4691Z" fill="white"/>
<path d="M13.3595 8.9065H23.2033C23.4622 8.9065 23.6721 8.69661 23.6721 8.43775C23.6721 8.17889 23.4622 7.96899 23.2033 7.96899H13.3595C13.1006 7.96899 12.8907 8.17889 12.8907 8.43775C12.8907 8.69661 13.1006 8.9065 13.3595 8.9065Z" fill="white"/>
<path d="M13.3595 10.7815H23.2033C23.4622 10.7815 23.6721 10.5716 23.6721 10.3127C23.6721 10.0539 23.4622 9.84399 23.2033 9.84399H13.3595C13.1006 9.84399 12.8907 10.0539 12.8907 10.3127C12.8907 10.5716 13.1006 10.7815 13.3595 10.7815Z" fill="white"/>
<path d="M13.3595 12.6565H23.2033C23.4622 12.6565 23.6721 12.4466 23.6721 12.1877C23.6721 11.9289 23.4622 11.719 23.2033 11.719H13.3595C13.1006 11.719 12.8907 11.9289 12.8907 12.1877C12.8907 12.4466 13.1006 12.6565 13.3595 12.6565Z" fill="white"/>
<path d="M17.8418 14.5321C18.1007 14.5321 18.3106 14.3222 18.3106 14.0634C18.3106 13.8045 18.1007 13.5946 17.8418 13.5946H13.3594C13.1005 13.5946 12.8906 13.8045 12.8906 14.0634C12.8906 14.3222 13.1005 14.5321 13.3594 14.5321H17.8418Z" fill="white"/>
<path d="M12.6561 16.4065H2.81226C2.5534 16.4065 2.34351 16.6164 2.34351 16.8752C2.34351 17.1341 2.5534 17.344 2.81226 17.344H12.6561C12.9149 17.344 13.1248 17.1341 13.1248 16.8752C13.1248 16.6164 12.9149 16.4065 12.6561 16.4065Z" fill="white"/>
<path d="M12.6561 18.2815H2.81226C2.5534 18.2815 2.34351 18.4914 2.34351 18.7502C2.34351 19.0091 2.5534 19.219 2.81226 19.219H12.6561C12.9149 19.219 13.1248 19.0091 13.1248 18.7502C13.1248 18.4914 12.9149 18.2815 12.6561 18.2815Z" fill="white"/>
<path d="M12.6561 20.1565H2.81226C2.5534 20.1565 2.34351 20.3664 2.34351 20.6252C2.34351 20.8841 2.5534 21.094 2.81226 21.094H12.6561C12.9149 21.094 13.1248 20.8841 13.1248 20.6252C13.1248 20.3664 12.9149 20.1565 12.6561 20.1565Z" fill="white"/>
<path d="M19.142 17.5781C18.4012 17.5781 18.0794 18.2258 18.4119 19.2817L21.0015 26.8107C21.2298 27.5341 21.5841 27.9008 21.9652 27.9008C22.3057 27.9008 22.6679 27.6078 22.9801 27.0145L23.5662 25.6897L26.8893 29.2554C27.3445 29.7444 27.9351 29.9999 28.4833 29.9999C28.8811 29.9999 29.2568 29.8654 29.5424 29.5877C30.2215 28.9275 30.1344 27.7081 29.3478 26.8645L25.9717 23.2417L27.2286 22.6782C28.4339 22.0313 28.391 21.0804 27.1331 20.5537L19.9069 17.7557C19.6189 17.6351 19.3619 17.578 19.1418 17.578L19.142 17.5781Z" fill="white"/>
<path d="M1.87478 25.3129H19.4951L19.1728 24.3754H1.87502C1.35813 24.3754 0.937508 23.9547 0.937508 23.4379V4.21893H25.3127V18.8441L26.2502 19.2071V1.87502C26.2502 0.843757 25.4065 0 24.3752 0H1.87502C0.843757 0 0 0.843757 0 1.87502V23.4377C0 24.469 0.843757 25.3127 1.87502 25.3127L1.87478 25.3129ZM22.9687 1.40641C23.3569 1.40641 23.6718 1.72135 23.6718 2.10954C23.6718 2.49773 23.3569 2.81267 22.9687 2.81267C22.5805 2.81267 22.2656 2.49773 22.2656 2.10954C22.2656 1.72135 22.5805 1.40641 22.9687 1.40641ZM20.3906 1.40641C20.7787 1.40641 21.0937 1.72135 21.0937 2.10954C21.0937 2.49773 20.7787 2.81267 20.3906 2.81267C20.0024 2.81267 19.6874 2.49773 19.6874 2.10954C19.6874 1.72135 20.0024 1.40641 20.3906 1.40641Z" fill="white"/>
</svg>
