<svg width="30" height="21" viewBox="0 0 30 21" fill="none" xmlns="http://www.w3.org/2000/svg">
<path d="M16.4999 16.4998C16.4999 17.3998 15.8999 17.9997 14.9999 17.9997L4.50004 18C3.60003 18 3.00011 17.4 3.00011 16.5V10.5001C3.00011 9.60004 3.60003 9.00012 4.50004 9.00012H14.9999C15.8999 9.00012 16.4999 9.60004 16.4999 10.5001H19.5C19.5 7.94994 17.55 6.00001 14.9999 6.00001L4.50004 5.99976C1.94993 5.99976 0 7.94969 0 10.4998V16.4998C0 19.0499 1.94993 20.9998 4.50004 20.9998H14.9999C17.55 20.9998 19.5 19.0499 19.5 16.4998H16.4999Z" fill="white"/>
<path d="M25.4998 0H14.9999C12.4498 0 10.4999 1.94993 10.4999 4.50005H13.5C13.5 3.60004 14.0999 3.00012 14.9999 3.00012H25.4998C26.3998 3.00012 26.9997 3.60004 26.9997 4.50005V10.5C26.9997 11.4 26.3998 12 25.4998 12H14.9999C14.0999 12 13.5 11.4 13.5 10.5H10.4999C10.4999 13.0501 12.4498 15.0001 14.9999 15.0001H25.4998C28.0499 15.0001 29.9999 13.0501 29.9999 10.5V4.50005C29.9999 1.94993 28.0499 0 25.4998 0Z" fill="white"/>
</svg>
