<svg width="30" height="24" viewBox="0 0 30 24" fill="none" xmlns="http://www.w3.org/2000/svg">
<path d="M20.5263 0V3.50323C15.3327 4.82271 7.93069 8.35456 5.52632 15.7895C11.5349 10.5165 20.0308 11.0909 20.5263 11.1143V14.6176L30 7.31492L20.5263 0ZM0 3.94738V22.5001C0 23.1202 0.564185 23.6844 1.18428 23.6844H21.3159C21.9359 23.6844 22.5001 23.1202 22.5001 22.5001V15.086L21.4885 15.863L20.1316 16.9116V21.3155H2.36842V5.13124H12.5082C14.2164 4.11 15.9734 3.34118 17.6399 2.76267H1.18428C0.539423 2.76295 0.0129699 3.44774 0 3.94696V3.94738Z" fill="white"/>
</svg>
