<svg width="30" height="17" viewBox="0 0 30 17" fill="none" xmlns="http://www.w3.org/2000/svg">
<path d="M29.225 0.000330372L23.8562 0.217594C23.5604 0.229292 23.3305 0.478544 23.3422 0.774359C23.3541 1.06993 23.6034 1.30009 23.8989 1.28815L28.0541 1.11887L22.6006 7.68254C22.9066 7.86972 23.1826 8.10059 23.4185 8.36874L28.7687 1.93342L28.9296 5.92553L28.9293 5.92577C28.9317 6.06997 28.9921 6.20702 29.0969 6.30586C29.2017 6.40494 29.3421 6.45747 29.4861 6.45173C29.6301 6.446 29.7657 6.38226 29.8621 6.2753C29.9588 6.16834 30.008 6.02676 29.9989 5.88303L29.7817 0.514258V0.514019C29.7707 0.238026 29.551 0.0155121 29.275 0.00118558C29.2583 -8.15265e-06 29.2416 -0.000246948 29.2249 0.000230582L29.225 0.000330372ZM12.3363 3.26548C10.9922 3.26548 9.88889 4.36564 9.88889 5.70954C9.88889 7.05369 10.9922 8.15269 12.3363 8.15269C13.6805 8.15269 14.7804 7.05375 14.7804 5.70954C14.7804 4.36539 13.6802 3.26548 12.3363 3.26548ZM15.6423 6.88158C15.5193 7.22419 15.3448 7.54198 15.1273 7.8268L17.4754 9.50735C17.5986 9.16474 17.7729 8.84695 17.9904 8.56213L15.6423 6.88158ZM9.25099 7.38605L4.74076 10.999C5.01079 11.2342 5.24357 11.509 5.43215 11.8149L9.90277 8.2322C9.64587 7.98485 9.42408 7.7005 9.25099 7.38605ZM20.7849 8.23532C19.4408 8.23532 18.3375 9.33547 18.3375 10.6794C18.3375 12.0235 19.4408 13.1234 20.7849 13.1234C22.1291 13.1234 23.229 12.0233 23.229 10.6794C23.229 9.33523 22.1288 8.23532 20.7849 8.23532ZM2.44406 11.2009C1.09991 11.2009 0 12.2998 0 13.644C0 14.9881 1.10016 16.0924 2.44406 16.0924C3.78821 16.0924 4.88721 14.9882 4.88721 13.644C4.88721 12.2999 3.78827 11.2009 2.44406 11.2009Z" fill="white"/>
</svg>
