<svg width="30" height="20" viewBox="0 0 30 20" fill="none" xmlns="http://www.w3.org/2000/svg">
<path d="M29.1264 0H2.30775C1.87109 0 1.49687 0.374218 1.49687 0.810877V3.18085C0.685995 3.24329 0 3.92929 0 4.80261V17.526C0 18.4616 0.748436 19.21 1.68398 19.21H25.1352C26.0083 19.21 26.6945 18.524 26.8191 17.7131H29.1891C29.6258 17.7131 30 17.3389 30 16.9023V0.810877C29.9376 0.374218 29.5633 0 29.1267 0H29.1264ZM25.0724 14.7816C23.5131 14.7816 22.2658 16.0289 22.2658 17.5882H4.4904C4.4904 16.0289 3.24308 14.7816 1.68377 14.7816V7.60946C3.24308 7.60946 4.4904 6.36213 4.4904 4.80282H22.3283C22.3283 6.36213 23.5756 7.60946 25.135 7.60946V14.7816H25.0724ZM28.2533 16.0914H26.7564V4.86483C26.7564 3.92929 26.0079 3.18085 25.0724 3.18085H3.18064V1.68398H28.2533V16.0914Z" fill="white"/>
<path d="M13.7214 11.6008V12.973C13.971 12.973 14.1581 12.8484 14.2827 12.7859C14.4074 12.6613 14.4698 12.5364 14.4698 12.3493C14.4698 12.1622 14.4074 12.0375 14.2827 11.9126C14.2203 11.7879 14.0332 11.7257 13.7214 11.6008Z" fill="white"/>
<path d="M12.4736 9.85485C12.4736 10.042 12.5361 10.1666 12.5983 10.2291C12.723 10.3537 12.9101 10.4162 13.1596 10.5408V9.23108C12.9101 9.23108 12.7854 9.29352 12.5983 9.41819C12.5361 9.54286 12.4736 9.72997 12.4736 9.85485Z" fill="white"/>
<path d="M13.4092 6.98547C11.1015 6.98547 9.16815 8.85657 9.16815 11.2266C9.16815 13.5343 11.0392 15.4676 13.4092 15.4676C15.7792 15.4676 17.6503 13.5965 17.6503 11.2266C17.5881 8.85657 15.717 6.98547 13.4092 6.98547ZM14.9685 13.3472C14.6568 13.5968 14.2201 13.7839 13.7212 13.7839V14.3452H13.2223V13.7839C12.5363 13.7214 11.9126 13.4096 11.3512 12.973L11.9126 12.287C12.3492 12.6612 12.7857 12.8483 13.2223 12.973L13.2221 11.4761C12.6608 11.3514 12.2241 11.1643 11.9748 10.9148C11.7252 10.6652 11.6006 10.3534 11.6006 9.91679C11.6006 9.48013 11.7252 9.10591 12.0372 8.85657C12.349 8.60702 12.7232 8.41991 13.2223 8.41991V8.04569H13.7212V8.41991C14.2825 8.48235 14.7814 8.66946 15.2805 8.98124L14.7816 9.66724C14.4699 9.41769 14.0957 9.29302 13.7214 9.23058V10.665C14.2828 10.7897 14.7194 10.9768 14.9688 11.2263C15.2183 11.4759 15.4054 11.7877 15.4054 12.2243C15.4052 12.6612 15.2803 13.0354 14.9685 13.3472H14.9685Z" fill="white"/>
<path d="M23.5131 11.1645C23.5131 12.4045 22.5078 13.4098 21.2678 13.4098C20.0278 13.4098 19.0225 12.4045 19.0225 11.1645C19.0225 9.9245 20.0278 8.91919 21.2678 8.91919C22.5078 8.91919 23.5131 9.9245 23.5131 11.1645Z" fill="white"/>
<path d="M7.73389 11.1645C7.73389 12.4045 6.72858 13.4098 5.48859 13.4098C4.24859 13.4098 3.24329 12.4045 3.24329 11.1645C3.24329 9.9245 4.24859 8.91919 5.48859 8.91919C6.72858 8.91919 7.73389 9.9245 7.73389 11.1645Z" fill="white"/>
</svg>
