<svg width="68" height="66" viewBox="0 0 68 66" fill="none" xmlns="http://www.w3.org/2000/svg">
<path d="M0.659314 61.5162C0.457196 61.7044 0.445874 62.0208 0.634031 62.2229L3.70019 65.5166C3.88835 65.7187 4.20473 65.73 4.40685 65.5419C4.60896 65.3537 4.62029 65.0374 4.43213 64.8352L1.70665 61.9075L4.63441 59.182C4.83653 58.9938 4.84785 58.6775 4.6597 58.4753C4.47154 58.2732 4.15516 58.2619 3.95304 58.4501L0.659314 61.5162ZM10.0569 5.65676C18.3798 2.01186 24.8305 1.00076 30.059 1.71369C35.2779 2.42533 39.3368 4.86261 42.8678 8.22796C46.4109 11.6048 49.4024 15.895 52.4963 20.3027C55.5785 24.6937 58.7583 29.1946 62.6506 32.9021L63.3403 32.178C59.5314 28.5499 56.4057 24.1315 53.3148 19.7282C50.2357 15.3416 47.1865 10.9626 43.5577 7.50407C39.9169 4.03409 35.6728 1.46993 30.1941 0.722864C24.7249 -0.0229014 18.0833 1.05004 9.65573 4.74075L10.0569 5.65676ZM62.6506 32.9021C64.5309 34.6931 65.6753 36.4805 66.185 38.2219C66.6925 39.9559 66.5802 41.6753 65.8956 43.3604C64.515 46.7581 60.7879 50.0528 55.0252 52.8894C43.5252 58.5502 24.2666 62.2144 1.01788 61.3825L0.982122 62.3819C24.3263 63.2172 43.7667 59.5459 55.4669 53.7866C61.3043 50.9132 65.3025 47.4767 66.822 43.7368C67.5874 41.8532 67.7187 39.9022 67.1447 37.941C66.5729 35.9873 65.3107 34.0549 63.3403 32.178L62.6506 32.9021Z" fill="#64E021"/>
</svg>
